<svg width="233" height="32" viewBox="0 0 233 32" fill="none" xmlns="http://www.w3.org/2000/svg">
    <g id="Logo wrap">
        <g id="Long logo no line">
            <g id="Group">
                <g id="Group_2">
                    <path id="Vector" d="M233 0.225708H116.563V31.7883H233V0.225708Z" fill="#F6F6F6" />
                    <path id="Vector_2" d="M233 0H116.563V32H233V0Z" fill="#F6F6F6" />
                </g>
                <g id="Group_3">
                    <g id="Group_4">
                        <path id="Vector_3"
                              d="M130.281 17.8483C130.043 17.8483 129.875 18.0176 129.875 18.2433V22.4338C129.875 22.8147 129.58 23.111 129.201 23.111H128.065C127.687 23.111 127.392 22.8147 127.392 22.4338V9.53784C127.392 9.15689 127.687 8.8606 128.065 8.8606H130.688C131.53 8.8606 132.301 9.15689 132.919 9.65072C133.606 10.2151 133.985 10.9911 133.985 12.2609V14.4338C133.985 15.6895 133.606 16.4655 132.919 17.044C132.301 17.5378 131.53 17.8341 130.688 17.8341H130.281V17.8483ZM130.281 11.1745C130.057 11.1745 129.875 11.3438 129.875 11.5696V15.1393C129.875 15.3509 130.057 15.5202 130.281 15.5202H130.604C130.772 15.5202 131.039 15.4497 131.235 15.238C131.39 15.0687 131.516 14.8006 131.516 14.4197V12.2609C131.516 11.8094 131.348 11.5414 131.151 11.3862C130.955 11.231 130.758 11.1745 130.604 11.1745H130.281Z"
                              fill="#373E42" />
                        <path id="Vector_4"
                              d="M142.569 20.2609C142.569 20.4867 142.737 20.656 142.976 20.656H144.308C144.687 20.656 144.982 20.9523 144.982 21.3333V22.4197C144.982 22.8006 144.687 23.111 144.308 23.111H140.76C140.381 23.111 140.086 22.8147 140.086 22.4338V9.53784C140.086 9.15689 140.381 8.8606 140.76 8.8606H141.896C142.274 8.8606 142.569 9.15689 142.569 9.53784V20.2609Z"
                              fill="#373E42" />
                        <path id="Vector_5"
                              d="M157.451 22.4338C157.451 22.8148 157.157 23.1111 156.778 23.1111H155.642C155.263 23.1111 154.969 22.8148 154.969 22.4338V18.0176C154.969 17.806 154.786 17.6366 154.534 17.6366H153.72C153.426 17.6366 153.314 17.8624 153.314 18.0176V22.4338C153.314 22.8148 153.019 23.1111 152.64 23.1111H151.504C151.125 23.1111 150.831 22.8148 150.831 22.4338V12.134C150.831 10.8783 151.21 10.1022 151.897 9.52377C152.514 9.02994 153.286 8.73364 154.127 8.73364C154.969 8.73364 155.74 9.02994 156.357 9.52377C157.045 10.0881 157.423 10.8642 157.423 12.134V22.4338H157.451ZM153.748 15.3791H154.562C154.8 15.3791 154.997 15.2098 154.997 14.9982V12.0917C154.997 11.753 154.913 11.5555 154.772 11.4003C154.618 11.231 154.408 11.1181 154.169 11.1181C153.931 11.1181 153.72 11.2169 153.566 11.4003C153.426 11.5555 153.342 11.7389 153.342 12.0917V14.9982C153.342 15.1534 153.454 15.3791 153.748 15.3791Z"
                              fill="#373E42" />
                        <path id="Vector_6"
                              d="M168.925 8.8606C169.304 8.8606 169.599 9.15689 169.599 9.53784V10.6243C169.599 11.0052 169.304 11.3015 168.925 11.3015H168.084C167.845 11.3015 167.677 11.4708 167.677 11.6966V22.4197C167.677 22.8006 167.382 23.111 167.004 23.111H165.868C165.489 23.111 165.194 22.8147 165.194 22.4338V11.6966C165.194 11.4708 165.026 11.3015 164.787 11.3015H163.946C163.567 11.3015 163.273 11.0052 163.273 10.6243V9.53784C163.273 9.15689 163.567 8.8606 163.946 8.8606H168.925Z"
                              fill="#373E42" />
                        <path id="Vector_7"
                              d="M177.875 22.4197C177.875 22.8006 177.58 23.111 177.201 23.111H176.065C175.686 23.111 175.392 22.8147 175.392 22.4338V9.53784C175.392 9.15689 175.686 8.8606 176.065 8.8606H179.768C180.147 8.8606 180.442 9.15689 180.442 9.53784V10.6243C180.442 11.0052 180.147 11.3015 179.768 11.3015H178.281C178.043 11.3015 177.875 11.4708 177.875 11.6966V14.9135C177.875 15.1393 178.043 15.3086 178.281 15.3086H179.53C179.908 15.3086 180.203 15.6049 180.203 15.9858V17.0722C180.203 17.4532 179.908 17.7495 179.53 17.7495H178.281C178.043 17.7495 177.875 17.9188 177.875 18.1445V22.4197Z"
                              fill="#373E42" />
                        <path id="Vector_8"
                              d="M186.249 12.1482C186.249 10.8924 186.627 10.1164 187.315 9.53793C187.932 9.0441 188.703 8.7478 189.545 8.7478C190.387 8.7478 191.158 9.0441 191.775 9.53793C192.463 10.1023 192.841 10.8783 192.841 12.1482V19.8378C192.841 21.0935 192.463 21.8695 191.775 22.448C191.158 22.9418 190.387 23.2381 189.545 23.2381C188.703 23.2381 187.932 22.9418 187.315 22.448C186.627 21.8836 186.249 21.1076 186.249 19.8378V12.1482ZM190.373 12.0917C190.373 11.7108 190.274 11.4991 190.12 11.3439C189.966 11.2028 189.755 11.1182 189.559 11.1182C189.363 11.1182 189.152 11.2028 188.998 11.3439C188.844 11.4991 188.745 11.7108 188.745 12.0917V19.8801C188.745 20.261 188.844 20.4727 188.998 20.6279C189.152 20.769 189.363 20.8536 189.559 20.8536C189.755 20.8536 189.966 20.769 190.12 20.6279C190.274 20.4727 190.373 20.261 190.373 19.8801V12.0917Z"
                              fill="#373E42" />
                        <path id="Vector_9"
                              d="M205.592 13.2486C205.592 14.5608 205.507 15.5343 204.834 16.1269L204.68 16.268C204.596 16.3527 204.54 16.4373 204.54 16.522C204.54 16.6066 204.596 16.6913 204.68 16.7759L204.834 16.917C205.507 17.5237 205.592 18.3139 205.592 19.626V22.4338C205.592 22.8147 205.297 23.111 204.918 23.111H203.782C203.403 23.111 203.109 22.8147 203.109 22.4338V18.723C203.109 18.2715 203.011 18.0458 202.87 17.8906C202.66 17.6789 202.394 17.6366 202.197 17.6366H201.875C201.65 17.6366 201.468 17.8059 201.468 18.0176V22.4338C201.468 22.8147 201.173 23.111 200.794 23.111H199.658C199.28 23.111 198.985 22.8147 198.985 22.4338V9.53784C198.985 9.15689 199.28 8.8606 199.658 8.8606H202.281C203.123 8.8606 203.894 9.15689 204.512 9.65072C205.199 10.2151 205.578 10.9911 205.578 12.2609V13.2486H205.592ZM201.889 11.1745C201.664 11.1745 201.482 11.3438 201.482 11.5696V14.9841C201.482 15.1957 201.664 15.365 201.889 15.365H202.211C202.394 15.365 202.674 15.3086 202.884 15.111C203.025 14.9558 203.123 14.7301 203.123 14.2786V12.2609C203.123 11.3862 202.52 11.1745 202.211 11.1745H201.889Z"
                              fill="#373E42" />
                        <path id="Vector_10"
                              d="M214.218 22.4337C214.218 22.8147 213.924 23.111 213.545 23.111H212.409C212.03 23.111 211.735 22.8147 211.735 22.4337V9.87641C211.735 9.46724 211.805 9.2556 211.96 9.08628C212.114 8.91697 212.353 8.77588 212.647 8.77588C212.886 8.77588 213.054 8.86053 213.264 8.9593L213.362 9.01574C213.489 9.07218 213.573 9.14272 213.811 9.14272C214.036 9.14272 214.302 8.98752 214.443 8.9593C214.821 8.81821 215.13 8.78999 215.452 8.78999C216.014 8.78999 216.476 8.94519 216.757 9.07218C216.897 9.12861 217.037 9.17094 217.234 9.17094C217.416 9.17094 217.571 9.10039 217.795 9.02985C218.047 8.94519 218.496 8.78999 219.184 8.78999C220.39 8.78999 221.358 9.28382 221.933 10.1586C222.255 10.6524 222.424 11.2873 222.424 12.2186V22.4337C222.424 22.8147 222.129 23.111 221.751 23.111H220.614C220.236 23.111 219.941 22.8147 219.941 22.4337V12.0775C219.941 11.7388 219.857 11.5554 219.717 11.4002C219.562 11.2309 219.352 11.118 219.113 11.118C218.875 11.118 218.665 11.2168 218.51 11.4002C218.37 11.5554 218.286 11.7247 218.286 12.0916V22.4337C218.286 22.8147 217.991 23.111 217.613 23.111H216.476C216.098 23.111 215.803 22.8147 215.803 22.4337V12.0775C215.803 11.7388 215.719 11.5554 215.579 11.4002C215.424 11.2309 215.214 11.118 214.976 11.118C214.737 11.118 214.527 11.2168 214.372 11.4002C214.232 11.5554 214.148 11.7247 214.148 12.0775V22.4337H214.218Z"
                              fill="#373E42" />
                    </g>
                </g>
                <g id="Group_5">
                    <path id="Vector_11" d="M233 32H115.736V0H233V32ZM116.367 31.5767H232.79V0.42328H116.367V31.5767Z"
                          fill="#F6F6F6" />
                </g>
            </g>
            <path id="Vector_12" d="M116.563 0H0V32H116.563V0Z" fill="url(#paint0_linear_13_1801)" />
            <g id="Group_6">
                <g id="Group_7">
                    <path id="Vector_13"
                          d="M13.6342 17.8341C13.3957 17.8341 13.2274 18.0035 13.2274 18.2292V22.4338C13.2274 22.8147 12.9328 23.111 12.5541 23.111H11.4179C11.0392 23.111 10.7446 22.8147 10.7446 22.4338V9.53784C10.7446 9.15689 11.0392 8.8606 11.4179 8.8606H14.0409C14.8825 8.8606 15.654 9.15689 16.2712 9.65072C16.9585 10.2151 17.3372 10.9911 17.3372 12.2609V14.4338C17.3372 15.6895 16.9585 16.4655 16.2712 17.044C15.654 17.5378 14.8825 17.8341 14.0409 17.8341H13.6342ZM13.6342 11.1745C13.4097 11.1745 13.2274 11.3438 13.2274 11.5696V15.1393C13.2274 15.3509 13.4097 15.5202 13.6342 15.5202H13.9568C14.1251 15.5202 14.3916 15.4497 14.588 15.238C14.7423 15.0687 14.8685 14.8006 14.8685 14.4197V12.2609C14.8685 11.8094 14.7002 11.5414 14.5038 11.3862C14.3074 11.231 14.1111 11.1745 13.9568 11.1745H13.6342Z"
                          fill="white" />
                    <path id="Vector_14"
                          d="M25.9217 20.2609C25.9217 20.4867 26.0901 20.656 26.3285 20.656H27.6611C28.0398 20.656 28.3343 20.9523 28.3343 21.3333V22.4197C28.3343 22.8006 28.0398 23.111 27.6611 23.111H24.1263C23.7476 23.111 23.453 22.8147 23.453 22.4338V9.53784C23.453 9.15689 23.7476 8.8606 24.1263 8.8606H25.2625C25.6412 8.8606 25.9358 9.15689 25.9358 9.53784V20.2609H25.9217Z"
                          fill="white" />
                    <path id="Vector_15"
                          d="M40.8182 22.4338C40.8182 22.8148 40.5236 23.1111 40.1449 23.1111H39.0087C38.63 23.1111 38.3354 22.8148 38.3354 22.4338V18.0176C38.3354 17.806 38.1531 17.6366 37.9006 17.6366H37.087C36.7925 17.6366 36.6803 17.8624 36.6803 18.0176V22.4338C36.6803 22.8148 36.3857 23.1111 36.007 23.1111H34.8708C34.4921 23.1111 34.1975 22.8148 34.1975 22.4338V12.134C34.1975 10.8783 34.5762 10.1022 35.2635 9.52377C35.8807 9.02994 36.6522 8.73364 37.4938 8.73364C38.3354 8.73364 39.1069 9.02994 39.7241 9.52377C40.4114 10.0881 40.7901 10.8642 40.7901 12.134V22.4338H40.8182ZM37.1151 15.365H37.9287C38.1671 15.365 38.3635 15.1957 38.3635 14.9841V12.0917C38.3635 11.753 38.2793 11.5555 38.1391 11.4003C37.9848 11.231 37.7744 11.1181 37.5359 11.1181C37.2974 11.1181 37.087 11.2169 36.9327 11.4003C36.7925 11.5555 36.7083 11.7389 36.7083 12.0917V14.9982C36.6943 15.1393 36.8205 15.365 37.1151 15.365Z"
                          fill="white" />
                    <path id="Vector_16"
                          d="M52.2782 8.8606C52.6569 8.8606 52.9515 9.15689 52.9515 9.53784V10.6243C52.9515 11.0052 52.6569 11.3015 52.2782 11.3015H51.4366C51.1981 11.3015 51.0298 11.4708 51.0298 11.6966V22.4197C51.0298 22.8006 50.7352 23.111 50.3565 23.111H49.2203C48.8416 23.111 48.547 22.8147 48.547 22.4338V11.6966C48.547 11.4708 48.3787 11.3015 48.1403 11.3015H47.2987C46.9199 11.3015 46.6254 11.0052 46.6254 10.6243V9.53784C46.6254 9.15689 46.9199 8.8606 47.2987 8.8606H52.2782Z"
                          fill="white" />
                    <path id="Vector_17"
                          d="M61.2413 22.4197C61.2413 22.8006 60.9467 23.111 60.568 23.111H59.4318C59.0531 23.111 58.7585 22.8147 58.7585 22.4338V9.53784C58.7585 9.15689 59.0531 8.8606 59.4318 8.8606H63.1349C63.5136 8.8606 63.8082 9.15689 63.8082 9.53784V10.6243C63.8082 11.0052 63.5136 11.3015 63.1349 11.3015H61.6481C61.4096 11.3015 61.2413 11.4708 61.2413 11.6966V14.9135C61.2413 15.1393 61.4096 15.3086 61.6481 15.3086H62.8965C63.2752 15.3086 63.5698 15.6049 63.5698 15.9858V17.0722C63.5698 17.4532 63.2752 17.7495 62.8965 17.7495H61.6481C61.4096 17.7495 61.2413 17.9188 61.2413 18.1445V22.4197Z"
                          fill="white" />
                    <path id="Vector_18"
                          d="M69.6154 12.134C69.6154 10.8783 69.9941 10.1022 70.6814 9.52377C71.2986 9.02994 72.0701 8.73364 72.9117 8.73364C73.7533 8.73364 74.5248 9.02994 75.1419 9.52377C75.8293 10.0881 76.208 10.8642 76.208 12.134V19.8236C76.208 21.0793 75.8293 21.8553 75.1419 22.4338C74.5248 22.9276 73.7533 23.2239 72.9117 23.2239C72.0701 23.2239 71.2986 22.9276 70.6814 22.4338C69.9941 21.8694 69.6154 21.0934 69.6154 19.8236V12.134ZM73.7252 12.0917C73.7252 11.7107 73.627 11.4991 73.4727 11.3439C73.3184 11.2028 73.108 11.1181 72.9117 11.1181C72.7013 11.1181 72.5049 11.2028 72.3506 11.3439C72.1963 11.4991 72.0981 11.7107 72.0981 12.0917V19.88C72.0981 20.261 72.1963 20.4726 72.3506 20.6278C72.5049 20.7689 72.7153 20.8536 72.9117 20.8536C73.1221 20.8536 73.3184 20.7689 73.4727 20.6278C73.627 20.4726 73.7252 20.261 73.7252 19.88V12.0917Z"
                          fill="white" />
                    <path id="Vector_19"
                          d="M88.9583 13.2486C88.9583 14.5608 88.8742 15.5343 88.2009 16.1269L88.0466 16.268C87.9624 16.3527 87.9063 16.4373 87.9063 16.522C87.9063 16.6066 87.9624 16.6913 88.0466 16.7759L88.2009 16.917C88.8742 17.5237 88.9583 18.3139 88.9583 19.626V22.4338C88.9583 22.8147 88.6638 23.111 88.285 23.111H87.1489C86.7701 23.111 86.4756 22.8147 86.4756 22.4338V18.723C86.4756 18.2715 86.3774 18.0458 86.2371 17.8906C86.0267 17.6789 85.7602 17.6366 85.5638 17.6366H85.2412C85.0168 17.6366 84.8344 17.8059 84.8344 18.0176V22.4338C84.8344 22.8147 84.5399 23.111 84.1612 23.111H83.025C82.6463 23.111 82.3517 22.8147 82.3517 22.4338V9.53784C82.3517 9.15689 82.6463 8.8606 83.025 8.8606H85.648C86.4896 8.8606 87.2611 9.15689 87.8783 9.65072C88.5656 10.2151 88.9443 10.9911 88.9443 12.2609V13.2486H88.9583ZM85.2412 11.1745C85.0168 11.1745 84.8344 11.3438 84.8344 11.5696V14.9841C84.8344 15.1957 85.0168 15.365 85.2412 15.365H85.5638C85.7462 15.365 86.0267 15.3086 86.2371 15.111C86.3774 14.9558 86.4756 14.7301 86.4756 14.2786V12.2609C86.4756 11.3862 85.8724 11.1745 85.5638 11.1745H85.2412Z"
                          fill="white" />
                    <path id="Vector_20"
                          d="M97.5849 22.4337C97.5849 22.8147 97.2904 23.111 96.9116 23.111H95.7755C95.3967 23.111 95.1022 22.8147 95.1022 22.4337V9.87641C95.1022 9.46724 95.1723 9.2556 95.3266 9.08628C95.4809 8.91697 95.7194 8.77588 96.0139 8.77588C96.2524 8.77588 96.4207 8.86053 96.6311 8.9593L96.7293 9.01574C96.8555 9.07218 96.9397 9.14272 97.1781 9.14272C97.4026 9.14272 97.6691 8.98752 97.8094 8.9593C98.1881 8.81821 98.4967 8.78999 98.8193 8.78999C99.3804 8.78999 99.8432 8.94519 100.124 9.07218C100.264 9.12861 100.404 9.17094 100.601 9.17094C100.783 9.17094 100.937 9.10039 101.162 9.02985C101.414 8.94519 101.863 8.78999 102.55 8.78999C103.757 8.78999 104.725 9.28382 105.3 10.1586C105.622 10.6524 105.791 11.2873 105.791 12.2186V22.4337C105.791 22.8147 105.496 23.111 105.117 23.111H103.981C103.602 23.111 103.308 22.8147 103.308 22.4337V12.0634C103.308 11.7247 103.224 11.5413 103.083 11.3861C102.929 11.2168 102.719 11.1039 102.48 11.1039C102.242 11.1039 102.031 11.2027 101.877 11.3861C101.737 11.5413 101.653 11.7106 101.653 12.0775V22.4337C101.653 22.8147 101.358 23.111 100.979 23.111H99.8432C99.4645 23.111 99.17 22.8147 99.17 22.4337V12.0634C99.17 11.7247 99.0858 11.5413 98.9455 11.3861C98.7912 11.2168 98.5808 11.1039 98.3424 11.1039C98.1039 11.1039 97.8935 11.2027 97.7392 11.3861C97.599 11.5413 97.5148 11.7106 97.5148 12.0634V22.4337H97.5849Z"
                          fill="white" />
                </g>
            </g>
        </g>
    </g>
    <defs>
        <linearGradient id="paint0_linear_13_1801" x1="-0.000136981" y1="15.998" x2="116.559" y2="15.998"
                        gradientUnits="userSpaceOnUse">
            <stop stop-color="#FF6620" />
            <stop offset="1" stop-color="#D24B00" />
        </linearGradient>
    </defs>
</svg>
