<svg width="88" height="86" viewBox="0 0 88 86" fill="none" xmlns="http://www.w3.org/2000/svg">
    <path
        d="M10.4425 32.5V27.4091H12.451C12.8371 27.4091 13.1661 27.4828 13.4379 27.6303C13.7096 27.7762 13.9168 27.9792 14.0593 28.2393C14.2035 28.4979 14.2756 28.7962 14.2756 29.1342C14.2756 29.4723 14.2027 29.7706 14.0568 30.0291C13.911 30.2876 13.6997 30.489 13.4229 30.6332C13.1478 30.7773 12.8147 30.8494 12.4237 30.8494H11.1435V29.9869H12.2496C12.4568 29.9869 12.6275 29.9512 12.7617 29.88C12.8976 29.8071 12.9987 29.7068 13.065 29.5792C13.1329 29.4499 13.1669 29.3016 13.1669 29.1342C13.1669 28.9652 13.1329 28.8177 13.065 28.6918C12.9987 28.5642 12.8976 28.4656 12.7617 28.396C12.6258 28.3247 12.4535 28.2891 12.2447 28.2891H11.5188V32.5H10.4425ZM21.753 29.9545C21.753 30.5097 21.6477 30.982 21.4373 31.3714C21.2285 31.7609 20.9434 32.0584 20.5822 32.2638C20.2225 32.4677 19.8182 32.5696 19.3691 32.5696C18.9167 32.5696 18.5107 32.4669 18.151 32.2614C17.7914 32.0559 17.5072 31.7584 17.2984 31.369C17.0896 30.9795 16.9852 30.508 16.9852 29.9545C16.9852 29.3994 17.0896 28.9271 17.2984 28.5376C17.5072 28.1482 17.7914 27.8516 18.151 27.6477C18.5107 27.4422 18.9167 27.3395 19.3691 27.3395C19.8182 27.3395 20.2225 27.4422 20.5822 27.6477C20.9434 27.8516 21.2285 28.1482 21.4373 28.5376C21.6477 28.9271 21.753 29.3994 21.753 29.9545ZM20.6617 29.9545C20.6617 29.5949 20.6078 29.2917 20.5001 29.0447C20.3941 28.7978 20.2441 28.6106 20.0502 28.483C19.8563 28.3554 19.6293 28.2915 19.3691 28.2915C19.1089 28.2915 18.8819 28.3554 18.688 28.483C18.4941 28.6106 18.3433 28.7978 18.2356 29.0447C18.1295 29.2917 18.0765 29.5949 18.0765 29.9545C18.0765 30.3142 18.1295 30.6174 18.2356 30.8643C18.3433 31.1113 18.4941 31.2985 18.688 31.4261C18.8819 31.5537 19.1089 31.6175 19.3691 31.6175C19.6293 31.6175 19.8563 31.5537 20.0502 31.4261C20.2441 31.2985 20.3941 31.1113 20.5001 30.8643C20.6078 30.6174 20.6617 30.3142 20.6617 29.9545ZM25.6048 32.5L24.1482 27.4091H25.3239L26.1666 30.9464H26.2089L27.1386 27.4091H28.1453L29.0725 30.9538H29.1173L29.9599 27.4091H31.1357L29.679 32.5H28.63L27.6606 29.1715H27.6208L26.6538 32.5H25.6048ZM33.8118 32.5V27.4091H37.2422V28.2965H34.8882V29.5096H37.0657V30.397H34.8882V31.6126H37.2521V32.5H33.8118ZM40.1979 32.5V27.4091H42.2065C42.5909 27.4091 42.9191 27.4779 43.1908 27.6154C43.4643 27.7513 43.6723 27.9444 43.8148 28.1946C43.9589 28.4432 44.031 28.7357 44.031 29.0721C44.031 29.4102 43.9581 29.701 43.8123 29.9446C43.6665 30.1866 43.4552 30.3722 43.1784 30.5014C42.9033 30.6307 42.5702 30.6953 42.1791 30.6953H40.8343V29.8303H42.0051C42.2106 29.8303 42.3813 29.8021 42.5172 29.7457C42.6531 29.6894 42.7542 29.6049 42.8205 29.4922C42.8884 29.3795 42.9224 29.2395 42.9224 29.0721C42.9224 28.9031 42.8884 28.7605 42.8205 28.6445C42.7542 28.5285 42.6522 28.4407 42.5147 28.381C42.3788 28.3197 42.2073 28.2891 42.0001 28.2891H41.2743V32.5H40.1979ZM42.9472 30.1832L44.2125 32.5H43.0243L41.7864 30.1832H42.9472ZM46.8917 32.5V27.4091H50.3221V28.2965H47.968V29.5096H50.1456V30.397H47.968V31.6126H50.332V32.5H46.8917ZM55.0825 32.5H53.2778V27.4091H55.0974C55.6095 27.4091 56.0503 27.511 56.4199 27.7148C56.7894 27.917 57.0736 28.2079 57.2725 28.5874C57.473 28.9669 57.5733 29.4209 57.5733 29.9496C57.5733 30.4799 57.473 30.9356 57.2725 31.3168C57.0736 31.6979 56.7878 31.9904 56.4149 32.1942C56.0437 32.3981 55.5996 32.5 55.0825 32.5ZM54.3542 31.5778H55.0378C55.3559 31.5778 55.6236 31.5214 55.8407 31.4087C56.0594 31.2944 56.2235 31.1179 56.3329 30.8793C56.4439 30.639 56.4994 30.3291 56.4994 29.9496C56.4994 29.5734 56.4439 29.266 56.3329 29.0273C56.2235 28.7887 56.0603 28.613 55.8432 28.5004C55.6261 28.3877 55.3584 28.3313 55.0403 28.3313H54.3542V31.5778ZM64.1907 32.5V27.4091H66.2291C66.6036 27.4091 66.916 27.4646 67.1662 27.5756C67.4164 27.6867 67.6045 27.8408 67.7305 28.038C67.8564 28.2335 67.9194 28.4589 67.9194 28.7141C67.9194 28.913 67.8796 29.0878 67.8001 29.2386C67.7205 29.3878 67.6112 29.5104 67.472 29.6065C67.3344 29.701 67.177 29.7681 66.9997 29.8079V29.8576C67.1936 29.8659 67.375 29.9206 67.5441 30.0217C67.7147 30.1228 67.8531 30.2644 67.9592 30.4467C68.0652 30.6274 68.1183 30.8428 68.1183 31.093C68.1183 31.3632 68.0512 31.6043 67.9169 31.8164C67.7843 32.0269 67.588 32.1934 67.3278 32.3161C67.0676 32.4387 66.7469 32.5 66.3658 32.5H64.1907ZM65.2671 31.62H66.1445C66.4445 31.62 66.6633 31.5629 66.8008 31.4485C66.9383 31.3325 67.0071 31.1784 67.0071 30.9862C67.0071 30.8453 66.9731 30.721 66.9052 30.6133C66.8373 30.5056 66.7403 30.421 66.6144 30.3597C66.4901 30.2984 66.3418 30.2678 66.1694 30.2678H65.2671V31.62ZM65.2671 29.5394H66.065C66.2125 29.5394 66.3434 29.5137 66.4578 29.4624C66.5738 29.4093 66.6649 29.3348 66.7312 29.2386C66.7991 29.1425 66.8331 29.0273 66.8331 28.8931C66.8331 28.7092 66.7677 28.5608 66.6367 28.4482C66.5075 28.3355 66.3235 28.2791 66.0849 28.2791H65.2671V29.5394ZM70.6203 27.4091H71.826L72.9868 29.6016H73.0365L74.1974 27.4091H75.403L73.5461 30.7003V32.5H72.4772V30.7003L70.6203 27.4091Z"
        fill="#98A2B3" />
    <g clip-path="url(#clip0_1_22277)">
        <path d="M62.9954 39.5H25.1052V50.6237H62.9954V39.5Z" fill="#F6F6F6" />
        <path
            d="M29.4425 45.7095C29.3647 45.7095 29.3098 45.7677 29.3098 45.8453V47.2861C29.3098 47.4171 29.2137 47.519 29.0902 47.519H28.7196C28.5961 47.519 28.5 47.4171 28.5 47.2861V42.857C28.5 42.726 28.5961 42.6241 28.7196 42.6241H29.5751C29.8496 42.6241 30.1013 42.726 30.3026 42.8958C30.5267 43.0899 30.6503 43.3567 30.6503 43.7933V44.5452C30.6503 44.977 30.5267 45.2438 30.3026 45.4427C30.1013 45.6125 29.8496 45.7143 29.5751 45.7143H29.4425V45.7095ZM29.4425 43.4246C29.3693 43.4246 29.3098 43.4828 29.3098 43.5604V44.7878C29.3098 44.8605 29.3693 44.9187 29.4425 44.9187H29.5477C29.6026 44.9187 29.6895 44.8945 29.7536 44.8217C29.8039 44.7635 29.8451 44.6713 29.8451 44.5452V43.7981C29.8451 43.6429 29.7902 43.5507 29.7261 43.4974C29.6666 43.444 29.598 43.4246 29.5477 43.4246H29.4425Z"
            fill="#373E42" />
        <path
            d="M33.4411 46.539C33.4411 46.6166 33.496 46.6749 33.5738 46.6749H34.0084C34.1319 46.6749 34.228 46.7767 34.228 46.9077V47.2813C34.228 47.4122 34.1319 47.519 34.0084 47.519H32.8509C32.7274 47.519 32.6313 47.4171 32.6313 47.2861V42.857C32.6313 42.726 32.7274 42.6241 32.8509 42.6241H33.2215C33.345 42.6241 33.4411 42.726 33.4411 42.857V46.539Z"
            fill="#373E42" />
        <path
            d="M38.2952 47.2861C38.2952 47.4171 38.1991 47.519 38.0756 47.519H37.705C37.5815 47.519 37.4854 47.4171 37.4854 47.2861V45.7677C37.4854 45.6949 37.426 45.6367 37.3436 45.6367H37.0828C36.9868 45.6367 36.9502 45.7143 36.9502 45.7677V47.2861C36.9502 47.4171 36.8541 47.519 36.7306 47.519H36.36C36.2365 47.519 36.1404 47.4171 36.1404 47.2861V43.7545C36.1404 43.3227 36.2639 43.0559 36.4881 42.857C36.6894 42.6872 36.941 42.5853 37.2155 42.5853C37.49 42.5853 37.7416 42.6872 37.9429 42.857C38.1671 43.051 38.2906 43.3179 38.2906 43.7545V47.2861H38.2952ZM37.0874 44.8654H37.3482C37.426 44.8654 37.49 44.8072 37.49 44.7344V43.7351C37.49 43.6186 37.4626 43.5507 37.4168 43.4973C37.3665 43.4391 37.2979 43.4003 37.2201 43.4003C37.1423 43.4003 37.0737 43.4343 37.0234 43.4973C36.9776 43.5507 36.9502 43.6138 36.9502 43.7351V44.7295C36.9547 44.7878 36.9913 44.8654 37.0874 44.8654Z"
            fill="#373E42" />
        <path
            d="M42.0283 42.629C42.1518 42.629 42.2479 42.7309 42.2479 42.8619V43.2354C42.2479 43.3664 42.1518 43.4683 42.0283 43.4683H41.7538C41.676 43.4683 41.6211 43.5265 41.6211 43.6041V47.2861C41.6211 47.4171 41.525 47.5238 41.4015 47.5238H41.0309C40.9074 47.5238 40.8113 47.422 40.8113 47.291V43.6041C40.8113 43.5265 40.7564 43.4683 40.6787 43.4683H40.4042C40.2806 43.4683 40.1846 43.3664 40.1846 43.2354V42.8619C40.1846 42.7309 40.2806 42.629 40.4042 42.629H42.0283Z"
            fill="#373E42" />
        <path
            d="M44.9426 47.2813C44.9426 47.4122 44.8465 47.519 44.723 47.519H44.3524C44.2289 47.519 44.1328 47.4171 44.1328 47.2861V42.857C44.1328 42.726 44.2289 42.6241 44.3524 42.6241H45.5602C45.6837 42.6241 45.7798 42.726 45.7798 42.857V43.2305C45.7798 43.3615 45.6837 43.4634 45.5602 43.4634H45.0753C44.9975 43.4634 44.9426 43.5216 44.9426 43.5992V44.7004C44.9426 44.7781 44.9975 44.8363 45.0753 44.8363H45.4824C45.606 44.8363 45.702 44.9381 45.702 45.0691V45.4427C45.702 45.5736 45.606 45.6755 45.4824 45.6755H45.0753C44.9975 45.6755 44.9426 45.7337 44.9426 45.8114V47.2813Z"
            fill="#373E42" />
        <path
            d="M47.6738 43.7545C47.6738 43.3227 47.7974 43.0559 48.0215 42.857C48.2228 42.6872 48.4745 42.5853 48.749 42.5853C49.0235 42.5853 49.2751 42.6872 49.4764 42.857C49.7006 43.051 49.8241 43.3179 49.8241 43.7545V46.3935C49.8241 46.8252 49.7006 47.0921 49.4764 47.291C49.2751 47.4607 49.0235 47.5626 48.749 47.5626C48.4745 47.5626 48.2228 47.4607 48.0215 47.291C47.7974 47.0969 47.6738 46.8301 47.6738 46.3935V43.7545ZM49.0143 43.7351C49.0143 43.6041 48.9823 43.5313 48.932 43.4779C48.8816 43.4294 48.813 43.4003 48.749 43.4003C48.6849 43.4003 48.6163 43.4294 48.566 43.4779C48.5156 43.5313 48.4836 43.6041 48.4836 43.7351V46.408C48.4836 46.539 48.5156 46.6118 48.566 46.6652C48.6163 46.7137 48.6849 46.7428 48.749 46.7428C48.813 46.7428 48.8816 46.7137 48.932 46.6652C48.9823 46.6118 49.0143 46.539 49.0143 46.408V43.7351Z"
            fill="#373E42" />
        <path
            d="M53.969 44.1329C53.969 44.584 53.9416 44.9139 53.722 45.1225L53.6717 45.171C53.6442 45.2001 53.6259 45.2292 53.6259 45.2583C53.6259 45.2874 53.6442 45.3165 53.6717 45.3456L53.722 45.3942C53.9416 45.6028 53.969 45.8744 53.969 46.3256V47.2861C53.969 47.4171 53.873 47.519 53.7494 47.519H53.3789C53.2553 47.519 53.1593 47.4171 53.1593 47.2861V46.0103C53.1593 45.855 53.1272 45.7774 53.0815 45.724C53.0129 45.6513 52.9259 45.6367 52.8619 45.6367H52.7567C52.6835 45.6367 52.624 45.6949 52.624 45.7677V47.2861C52.624 47.4171 52.5279 47.519 52.4044 47.519H52.0338C51.9103 47.519 51.8142 47.4171 51.8142 47.2861V42.857C51.8142 42.726 51.9103 42.6241 52.0338 42.6241H52.8893C53.1638 42.6241 53.4155 42.726 53.6168 42.8958C53.8409 43.0899 53.9645 43.3567 53.9645 43.7933V44.1329H53.969ZM52.7612 43.4246C52.688 43.4246 52.6286 43.4828 52.6286 43.5604V44.7344C52.6286 44.8072 52.688 44.8654 52.7612 44.8654H52.8665C52.9259 44.8654 53.0174 44.846 53.0861 44.7781C53.1318 44.7247 53.1638 44.6471 53.1638 44.4918V43.7981C53.1638 43.4974 52.9671 43.4246 52.8665 43.4246H52.7612Z"
            fill="#373E42" />
        <path
            d="M56.7827 47.2861C56.7827 47.4171 56.6866 47.5189 56.5631 47.5189H56.1925C56.069 47.5189 55.9729 47.4171 55.9729 47.2861V42.9782C55.9729 42.8376 55.9958 42.7648 56.0461 42.7066C56.0964 42.6484 56.1742 42.5999 56.2703 42.5999C56.3481 42.5999 56.403 42.629 56.4716 42.6629L56.5036 42.6823C56.5448 42.7017 56.5722 42.726 56.65 42.726C56.7232 42.726 56.8101 42.6726 56.8559 42.6629C56.9794 42.6144 57.0801 42.6047 57.1853 42.6047C57.3683 42.6047 57.5193 42.6581 57.6108 42.7017C57.6565 42.7211 57.7023 42.7357 57.7663 42.7357C57.8258 42.7357 57.8761 42.7114 57.9493 42.6872C58.0317 42.6581 58.1781 42.6047 58.4022 42.6047C58.7957 42.6047 59.1114 42.7745 59.2944 43.0753C59.3996 43.2451 59.4545 43.4585 59.4545 43.7787V47.2958C59.4545 47.4268 59.3584 47.5286 59.2349 47.5286H58.8643C58.7408 47.5286 58.6447 47.4268 58.6447 47.2958V43.7302C58.6447 43.6137 58.6173 43.5507 58.5715 43.4973C58.5212 43.4391 58.4526 43.4003 58.3748 43.4003C58.297 43.4003 58.2284 43.4343 58.1781 43.4973C58.1323 43.5507 58.1049 43.6089 58.1049 43.735V47.2861C58.1049 47.4171 58.0088 47.5189 57.8853 47.5189H57.5147C57.3912 47.5189 57.2951 47.4171 57.2951 47.2861V43.7302C57.2951 43.6137 57.2676 43.5507 57.2219 43.4973C57.1716 43.4391 57.1029 43.4003 57.0252 43.4003C56.9474 43.4003 56.8788 43.4343 56.8284 43.4973C56.7827 43.5507 56.7552 43.6089 56.7552 43.7302V47.2861H56.7827Z"
            fill="#373E42" />
        <path d="M63 50.5024H25V61.5049H63V50.5024Z" fill="url(#paint0_linear_1_22277)" />
        <path
            d="M29.4425 56.6392C29.3647 56.6392 29.3098 56.6974 29.3098 56.775V58.2158C29.3098 58.3468 29.2137 58.4487 29.0902 58.4487H28.7196C28.5961 58.4487 28.5 58.3468 28.5 58.2158V53.7867C28.5 53.6557 28.5961 53.5538 28.7196 53.5538H29.5751C29.8496 53.5538 30.1013 53.6557 30.3026 53.8255C30.5267 54.0195 30.6503 54.2864 30.6503 54.723V55.47C30.6503 55.9018 30.5267 56.1686 30.3026 56.3675C30.1013 56.5373 29.8496 56.6392 29.5751 56.6392H29.4425ZM29.4425 54.3543C29.3693 54.3543 29.3098 54.4125 29.3098 54.4901V55.7174C29.3098 55.7902 29.3693 55.8484 29.4425 55.8484H29.5477C29.6026 55.8484 29.6895 55.8242 29.7536 55.7514C29.8039 55.6932 29.8451 55.601 29.8451 55.4749V54.7278C29.8451 54.5726 29.7902 54.4804 29.7261 54.427C29.6666 54.3737 29.598 54.3543 29.5477 54.3543H29.4425Z"
            fill="white" />
        <path
            d="M33.4411 57.4736C33.4411 57.5512 33.496 57.6094 33.5738 57.6094H34.0084C34.1319 57.6094 34.228 57.7113 34.228 57.8423V58.2158C34.228 58.3468 34.1319 58.4535 34.0084 58.4535H32.8509C32.7274 58.4535 32.6313 58.3517 32.6313 58.2207V53.7916C32.6313 53.6606 32.7274 53.5587 32.8509 53.5587H33.2215C33.345 53.5587 33.4411 53.6606 33.4411 53.7916V57.4736Z"
            fill="white" />
        <path
            d="M38.2952 58.2206C38.2952 58.3516 38.1991 58.4535 38.0756 58.4535H37.705C37.5815 58.4535 37.4854 58.3516 37.4854 58.2206V56.7022C37.4854 56.6295 37.426 56.5712 37.3436 56.5712H37.0828C36.9868 56.5712 36.9502 56.6489 36.9502 56.7022V58.2206C36.9502 58.3516 36.8541 58.4535 36.7306 58.4535H36.36C36.2365 58.4535 36.1404 58.3516 36.1404 58.2206V54.6841C36.1404 54.2524 36.2639 53.9856 36.4881 53.7867C36.6894 53.6169 36.941 53.515 37.2155 53.515C37.49 53.515 37.7416 53.6169 37.9429 53.7867C38.1671 53.9807 38.2906 54.2475 38.2906 54.6841V58.2206H38.2952ZM37.0874 55.7951H37.3482C37.426 55.7951 37.49 55.7368 37.49 55.6641V54.6696C37.49 54.5532 37.4626 54.4852 37.4168 54.4319C37.3665 54.3737 37.2979 54.3349 37.2201 54.3349C37.1423 54.3349 37.0737 54.3688 37.0234 54.4319C36.9776 54.4852 36.9502 54.5483 36.9502 54.6696V55.6641C36.9547 55.7174 36.9913 55.7951 37.0874 55.7951Z"
            fill="white" />
        <path
            d="M42.0283 53.5587C42.1518 53.5587 42.2479 53.6606 42.2479 53.7916V54.1651C42.2479 54.2961 42.1518 54.398 42.0283 54.398H41.7538C41.676 54.398 41.6211 54.4562 41.6211 54.5338V58.2158C41.6211 58.3468 41.525 58.4535 41.4015 58.4535H41.0309C40.9074 58.4535 40.8113 58.3517 40.8113 58.2207V54.5338C40.8113 54.4562 40.7564 54.398 40.6787 54.398H40.4042C40.2806 54.398 40.1846 54.2961 40.1846 54.1651V53.7916C40.1846 53.6606 40.2806 53.5587 40.4042 53.5587H42.0283Z"
            fill="white" />
        <path
            d="M44.9426 58.2109C44.9426 58.3419 44.8465 58.4487 44.723 58.4487H44.3524C44.2289 58.4487 44.1328 58.3468 44.1328 58.2158V53.7867C44.1328 53.6557 44.2289 53.5538 44.3524 53.5538H45.5602C45.6837 53.5538 45.7798 53.6557 45.7798 53.7867V54.1602C45.7798 54.2912 45.6837 54.3931 45.5602 54.3931H45.0753C44.9975 54.3931 44.9426 54.4513 44.9426 54.5289V55.6301C44.9426 55.7077 44.9975 55.766 45.0753 55.766H45.4824C45.606 55.766 45.702 55.8678 45.702 55.9988V56.3724C45.702 56.5033 45.606 56.6052 45.4824 56.6052H45.0753C44.9975 56.6052 44.9426 56.6634 44.9426 56.741V58.2109Z"
            fill="white" />
        <path
            d="M47.6738 54.6841C47.6738 54.2524 47.7974 53.9856 48.0215 53.7867C48.2228 53.6169 48.4745 53.515 48.749 53.515C49.0235 53.515 49.2751 53.6169 49.4764 53.7867C49.7006 53.9807 49.8241 54.2475 49.8241 54.6841V57.3232C49.8241 57.7549 49.7006 58.0217 49.4764 58.2206C49.2751 58.3904 49.0235 58.4923 48.749 58.4923C48.4745 58.4923 48.2228 58.3904 48.0215 58.2206C47.7974 58.0266 47.6738 57.7598 47.6738 57.3232V54.6841ZM49.0143 54.6647C49.0143 54.5338 48.9823 54.461 48.932 54.4076C48.8816 54.3591 48.813 54.33 48.749 54.33C48.6849 54.33 48.6163 54.3591 48.566 54.4076C48.5156 54.461 48.4836 54.5338 48.4836 54.6647V57.3377C48.4836 57.4687 48.5156 57.5415 48.566 57.5948C48.6163 57.6433 48.6849 57.6725 48.749 57.6725C48.813 57.6725 48.8816 57.6433 48.932 57.5948C48.9823 57.5415 49.0143 57.4687 49.0143 57.3377V54.6647Z"
            fill="white" />
        <path
            d="M53.969 55.0625C53.969 55.5137 53.9416 55.8436 53.722 56.0522L53.6717 56.1007C53.6442 56.1298 53.6259 56.1589 53.6259 56.188C53.6259 56.2171 53.6442 56.2462 53.6717 56.2753L53.722 56.3238C53.9416 56.5324 53.969 56.8041 53.969 57.2553V58.2158C53.969 58.3468 53.873 58.4487 53.7494 58.4487H53.3789C53.2553 58.4487 53.1593 58.3468 53.1593 58.2158V56.9399C53.1593 56.7847 53.1272 56.7071 53.0815 56.6537C53.0129 56.581 52.9259 56.5664 52.8619 56.5664H52.7567C52.6835 56.5664 52.624 56.6246 52.624 56.6974V58.2158C52.624 58.3468 52.5279 58.4487 52.4044 58.4487H52.0338C51.9103 58.4487 51.8142 58.3468 51.8142 58.2158V53.7867C51.8142 53.6557 51.9103 53.5538 52.0338 53.5538H52.8893C53.1638 53.5538 53.4155 53.6557 53.6168 53.8255C53.8409 54.0195 53.9645 54.2864 53.9645 54.723V55.0625H53.969ZM52.7612 54.3543C52.688 54.3543 52.6286 54.4125 52.6286 54.4901V55.6641C52.6286 55.7369 52.688 55.7951 52.7612 55.7951H52.8665C52.9259 55.7951 53.0174 55.7757 53.0861 55.7077C53.1318 55.6544 53.1638 55.5768 53.1638 55.4215V54.7278C53.1638 54.427 52.9671 54.3543 52.8665 54.3543H52.7612Z"
            fill="white" />
        <path
            d="M56.7827 58.2206C56.7827 58.3516 56.6866 58.4535 56.5631 58.4535H56.1925C56.069 58.4535 55.9729 58.3516 55.9729 58.2206V53.9079C55.9729 53.7672 55.9958 53.6945 56.0461 53.6363C56.0964 53.5781 56.1742 53.5295 56.2703 53.5295C56.3481 53.5295 56.403 53.5586 56.4716 53.5926L56.5036 53.612C56.5448 53.6314 56.5722 53.6557 56.65 53.6557C56.7232 53.6557 56.8101 53.6023 56.8559 53.5926C56.9794 53.5441 57.0801 53.5344 57.1853 53.5344C57.3683 53.5344 57.5193 53.5878 57.6108 53.6314C57.6565 53.6508 57.7023 53.6654 57.7663 53.6654C57.8258 53.6654 57.8761 53.6411 57.9493 53.6169C58.0317 53.5878 58.1781 53.5344 58.4022 53.5344C58.7957 53.5344 59.1114 53.7042 59.2944 54.005C59.3996 54.1747 59.4545 54.3882 59.4545 54.7084V58.2255C59.4545 58.3564 59.3584 58.4583 59.2349 58.4583H58.8643C58.7408 58.4583 58.6447 58.3564 58.6447 58.2255V54.6696C58.6447 54.5531 58.6173 54.4901 58.5715 54.4367C58.5212 54.3785 58.4526 54.3397 58.3748 54.3397C58.297 54.3397 58.2284 54.3736 58.1781 54.4367C58.1323 54.4901 58.1049 54.5483 58.1049 54.6744V58.2255C58.1049 58.3564 58.0088 58.4583 57.8853 58.4583H57.5147C57.3912 58.4583 57.2951 58.3564 57.2951 58.2255V54.6696C57.2951 54.5531 57.2676 54.4901 57.2219 54.4367C57.1716 54.3785 57.1029 54.3397 57.0252 54.3397C56.9474 54.3397 56.8788 54.3736 56.8284 54.4367C56.7827 54.4901 56.7552 54.5483 56.7552 54.6696V58.2206H56.7827Z"
            fill="white" />
    </g>
    <defs>
        <linearGradient id="paint0_linear_1_22277" x1="41.4294" y1="45.8331" x2="47.1598" y2="66.002"
                        gradientUnits="userSpaceOnUse">
            <stop stop-color="#FF6620" />
            <stop offset="1" stop-color="#D24B00" />
        </linearGradient>
        <clipPath id="clip0_1_22277">
            <rect width="38" height="22" fill="white" transform="translate(25 39.5)" />
        </clipPath>
    </defs>
</svg>
