<svg xmlns="http://www.w3.org/2000/svg" viewBox="0 0 48 32" role="img" aria-label="Visa">
  <rect width="48" height="32" rx="4" fill="#1A1F71" />
  <path fill="#FFFFFF" d="M19.9 21.1h-3.1l1.9-9.6h3.1l-1.9 9.6zm11.4-9.4c-.6-.2-1.6-.5-2.8-.5-3.1 0-5.3 1.6-5.3 3.9 0 1.7 1.6 2.6 2.8 3.2 1.2.6 1.6 1 1.6 1.5 0 .8-1 1.1-2 1.1-1.3 0-2-.2-3.1-.7l-.4-.2-.5 2.7c.8.3 2.2.6 3.6.6 3.3 0 5.5-1.6 5.5-4 0-1.4-.8-2.4-2.7-3.2-1.1-.5-1.8-.9-1.8-1.4 0-.5.6-1 1.8-1 1 0 1.8.2 2.4.5l.3.1.6-2.6zm7.7-.2h-2.4c-.7 0-1.3.2-1.6 1L31 21.1h3.2l.6-1.8h3.9c.1.4.4 1.8.4 1.8h2.9L39 11.5zm-3.6 6.2c.2-.7 1.2-3.4 1.2-3.4 0 .1.3-.7.4-1.1l.2 1c0 .1.6 2.9.7 3.5h-2.5zm-22.2-6.2L9.9 18l-.3-1.6c-.6-1.9-2.3-3.9-4.3-4.9l2.7 9.6h3.2l4.9-9.6h-3.2z"/>
  <path fill="#F7B600" d="M7.5 11.5H2.6l-.1.2c3.8.9 6.3 3.2 7.4 5.9L8.8 12.5c-.2-.7-.7-1-1.3-1z"/>
</svg>
